<?xml version="1.0" encoding="UTF-8"?>
<svg version="1.1" xmlns="http://www.w3.org/2000/svg" width="2000" height="3271">
<path d="M0 0 C0.89765585 -0.00350607 1.7953117 -0.00701215 2.72016925 -0.01062447 C5.74979191 -0.01998168 8.77922417 -0.01500403 11.80885506 -0.01015663 C13.99417692 -0.01389071 16.17949744 -0.01849125 18.36481583 -0.02388728 C24.38704408 -0.03616257 30.40921698 -0.03585149 36.4314549 -0.03349853 C42.91963963 -0.0330915 49.40780634 -0.04411849 55.89598274 -0.05361366 C68.6136557 -0.07068508 81.33131286 -0.07575023 94.04899608 -0.07683842 C104.38256791 -0.07775684 114.71613372 -0.08187007 125.0497036 -0.08823967 C128.02218917 -0.0900347 130.99467476 -0.09181433 133.96716034 -0.09358943 C135.07555271 -0.09425257 135.07555271 -0.09425257 136.20633684 -0.09492911 C156.99598119 -0.10724053 177.78562345 -0.11512993 198.57527161 -0.11424255 C199.75142245 -0.11419582 199.75142245 -0.11419582 200.95133392 -0.11414814 C204.92565396 -0.11398192 208.89997399 -0.11378383 212.87429403 -0.11357872 C214.05830625 -0.11351889 214.05830625 -0.11351889 215.26623791 -0.11345784 C216.86247907 -0.11337697 218.45872023 -0.11329337 220.05496139 -0.11320706 C244.89467176 -0.11198131 269.73432755 -0.12699783 294.57402229 -0.15435219 C322.46870292 -0.185058 350.36334767 -0.2022856 378.25804627 -0.20042574 C381.23116056 -0.20027648 384.20427485 -0.20017907 387.17738914 -0.20011711 C387.90946836 -0.2000938 388.64154758 -0.20007049 389.39581101 -0.20004648 C401.1884301 -0.19998487 412.98100189 -0.21276886 424.77360691 -0.22998164 C436.62055984 -0.24691639 448.46743755 -0.24858506 460.31439601 -0.235763 C466.73532464 -0.22921203 473.15608143 -0.22919281 479.57699394 -0.2464695 C485.45049636 -0.26211117 491.32368941 -0.25942809 497.19718386 -0.24190123 C499.32636424 -0.23881163 501.45556719 -0.24253674 503.58472095 -0.25362138 C506.4712067 -0.26765807 509.35659459 -0.25722256 512.24304199 -0.24050903 C513.49313841 -0.25541357 513.49313841 -0.25541357 514.7684893 -0.27061921 C520.0539983 -0.20558053 523.05757576 0.75145475 527.24736214 4.25726891 C531.44404404 9.81503683 532.39558702 13.84807739 532.37797266 20.65103644 C532.37994518 21.41526862 532.38191769 22.1795008 532.38394998 22.96689152 C532.38939126 25.55375491 532.38766281 28.14056528 532.38602734 30.7274332 C532.38847296 32.59837393 532.39135629 34.46931412 532.39464012 36.34025356 C532.40244797 41.52100496 532.40398369 46.70174274 532.40456754 51.8824993 C532.40628994 57.50373795 532.41377153 63.12496929 532.42054409 68.74620372 C532.43162613 78.61112219 532.43898261 88.47603809 532.44394302 98.34096146 C532.44927926 108.92936776 532.45672743 119.51776985 532.46687126 130.10617256 C532.46782921 131.10812951 532.46782921 131.10812951 532.46880651 132.130328 C532.47207277 135.53612208 532.4753745 138.94191611 532.47868878 142.34771014 C532.50262522 167.01980235 532.52172997 191.69189643 532.53828812 216.3639946 C532.55470398 240.80306466 532.57317804 265.24213176 532.59442139 289.68119812 C532.59507978 290.43971843 532.59573818 291.19823874 532.59641652 291.97974451 C532.6024309 298.90749102 532.6084707 305.8352375 532.61454103 312.76298395 C532.62963197 329.9858575 532.64440389 347.20873132 532.65895939 364.43160534 C532.65995409 365.60814257 532.65995409 365.60814257 532.6609689 366.80844824 C532.69321184 404.97831688 532.72177947 443.14818816 532.75004768 481.31805992 C532.75986145 494.5665951 532.76969146 507.81513027 532.7795887 521.06366539 C532.7802025 521.88532238 532.78081629 522.70697936 532.78144869 523.55353505 C532.80999605 561.73851216 532.84115148 599.92348701 532.87298121 638.1084615 C532.87504715 640.58695588 532.87711197 643.06545026 532.87917656 645.54394464 C532.89286031 661.96882873 532.90658904 678.39371278 532.9203479 694.81859681 C532.94772505 727.5010332 532.97483785 760.1834698 533.00176908 792.86590656 C533.00305167 794.42238746 533.00433444 795.97886837 533.0056174 797.53534927 C533.06983693 875.44851266 533.13011809 953.36167899 533.24736214 1108.25726891 C533.90445608 1107.25721793 534.56155003 1106.25716696 535.23855591 1105.22681141 C537.71170338 1101.46288773 540.18492732 1097.69901432 542.65817261 1093.93515491 C543.72200269 1092.31616373 544.78581293 1090.69715951 545.84960175 1089.07814121 C554.01414702 1076.65226927 562.18717666 1064.2320568 570.37236214 1051.81976891 C571.58918637 1049.97408382 572.80598233 1048.12838009 574.02275276 1046.28265953 C576.52362282 1042.48913227 579.02460823 1038.6956811 581.52568245 1034.90228844 C586.99840247 1026.60157283 592.46960657 1018.29985811 597.94090462 1009.99820518 C600.95965975 1005.41785088 603.97851614 1000.83756332 606.99736214 996.25726891 C608.20569595 994.42393589 609.41402929 992.59060256 610.62236214 990.75726891 C672.24736214 897.25726891 672.24736214 897.25726891 733.87236214 803.75726891 C734.47047707 802.84978401 735.068592 801.94229912 735.68483162 801.00731468 C736.89326603 799.17382834 738.10170109 797.34034241 739.3101368 795.50685692 C742.32942888 790.92586816 745.34870979 786.34487205 748.36796761 781.7638607 C753.8238496 773.4858709 759.27981396 765.20793544 764.7361927 756.93027306 C777.07704046 738.20843342 789.41589299 719.48528758 801.74736214 700.75726891 C814.68890168 681.10272561 827.6387467 661.4536628 840.59013557 641.80560875 C846.03938193 633.53870773 851.48810991 625.27146504 856.9368763 617.00424767 C859.95701694 612.42190737 862.97719125 607.83958926 865.99736214 603.25726891 C867.20569563 601.42393568 868.41402896 599.59060235 869.62236214 597.75726891 C929.43486214 507.00726891 989.24736214 416.25726891 1197.68451118 100.00783348 C1198.89405368 98.17264414 1200.10355679 96.33742885 1201.31302071 94.50218773 C1204.31503312 89.94703865 1207.31770626 85.392328 1210.32182503 80.83856773 C1215.98468866 72.25303229 1221.64045867 63.663039 1227.27443123 55.05850792 C1229.9344875 50.99675635 1232.59810939 46.93734911 1235.26201057 42.87811852 C1236.53023529 40.94341563 1237.79671414 39.00756703 1239.06132698 37.07050133 C1240.8155351 34.38373869 1242.5757362 31.70099315 1244.33720589 29.01898766 C1244.84843498 28.23247322 1245.35966408 27.44595879 1245.88638496 26.63561058 C1250.60318834 19.4775448 1255.36793424 13.46027548 1262.49736214 8.56976891 C1264.05197151 7.48115562 1264.05197151 7.48115562 1265.63798714 6.37055016 C1273.0863783 1.74730694 1280.21783257 -0.34298064 1288.9441061 -0.24609566 C1289.87093347 -0.25190942 1290.79776084 -0.25772318 1291.75267389 -0.26371312 C1294.84559849 -0.27826327 1297.93772329 -0.26445099 1301.03064156 -0.25066566 C1303.27547936 -0.2552765 1305.52031414 -0.26163064 1307.76514262 -0.26957464 C1313.924033 -0.28626513 1320.08267529 -0.27802273 1326.24156654 -0.26562977 C1332.20429694 -0.25751057 1338.16698612 -0.26816998 1344.12970704 -0.27821923 C1357.07395303 -0.29926346 1370.01811997 -0.29746451 1382.96237346 -0.28590358 C1394.28701466 -0.27583882 1405.61162691 -0.27321576 1416.93627167 -0.27799416 C1417.68764495 -0.2782997 1418.43901823 -0.27860524 1419.2131604 -0.27892004 C1422.26322344 -0.28016539 1425.31328647 -0.28143899 1428.36334948 -0.28275909 C1456.96587555 -0.29499111 1485.56835127 -0.28390643 1514.17086957 -0.2623715 C1539.58889078 -0.2433798 1565.00683185 -0.24509616 1590.42485237 -0.26421547 C1618.98282354 -0.28562484 1647.54075028 -0.29413329 1676.09872836 -0.28176641 C1679.14166271 -0.28048353 1682.18459707 -0.27923217 1685.22753143 -0.27799416 C1685.97678003 -0.27767785 1686.72602862 -0.27736154 1687.49798171 -0.27703564 C1698.81965944 -0.27248293 1710.14130508 -0.2778119 1721.46297836 -0.28791237 C1734.33041446 -0.29933464 1747.19775918 -0.29652124 1760.06518386 -0.27478939 C1766.63385446 -0.26406199 1773.20239562 -0.26020164 1779.77106857 -0.273386 C1785.77813529 -0.28526118 1791.78488709 -0.27882795 1797.79192504 -0.25747579 C1799.97070154 -0.25298913 1802.14950437 -0.25532188 1804.32826409 -0.26497895 C1807.27916772 -0.27706027 1810.22897831 -0.26475188 1813.17982388 -0.24609566 C1814.03498991 -0.25546032 1814.89015594 -0.26482499 1815.77123609 -0.27447343 C1819.73642432 -0.2240202 1821.79573581 -0.01289327 1825.27111453 2.06607294 C1827.24736214 4.25726891 1827.24736214 4.25726891 1827.93486214 7.81976891 C1827.3156198 17.32683152 1819.06901874 26.93021538 1814.12236214 34.75726891 C1813.46494026 35.80334312 1812.80751839 36.84941734 1812.13017464 37.92719078 C1810.17287355 41.0395271 1808.21100627 44.14893155 1806.24736214 47.25726891 C1805.44540413 48.52764 1805.44540413 48.52764 1804.62724495 49.82367516 C1802.68631486 52.89776404 1800.74459408 55.9713487 1798.80082893 59.04364586 C1792.88591072 68.39740153 1787.03100101 77.78867228 1781.17070198 87.1767025 C1777.40945309 93.2010029 1773.64421032 99.22280773 1769.87968636 105.24506187 C1766.71573849 110.30688293 1763.55281775 115.36934039 1760.39189339 120.43305016 C1754.21878466 130.32006169 1748.03110457 140.19711782 1741.79863167 150.04681969 C1735.88494674 159.39983616 1730.0303219 168.78976021 1724.17070198 178.1767025 C1720.40945309 184.2010029 1716.64421032 190.22280773 1712.87968636 196.24506187 C1709.71573849 201.30688293 1706.55281775 206.36934039 1703.39189339 211.43305016 C1697.21878466 221.32006169 1691.03110457 231.19711782 1684.79863167 241.04681969 C1678.88494674 250.39983616 1673.0303219 259.78976021 1667.17070198 269.1767025 C1663.40945309 275.2010029 1659.64421032 281.22280773 1655.87968636 287.24506187 C1652.71573849 292.30688293 1649.55281775 297.36934039 1646.39189339 302.43305016 C1640.21878466 312.32006169 1634.03110457 322.19711782 1627.79863167 332.04681969 C1621.23802089 342.4230067 1614.74756279 352.84318042 1608.24736214 363.25726891 C1600.79064371 375.20381173 1593.32873366 387.14636527 1585.79863167 399.04681969 C1579.88494674 408.39983616 1574.0303219 417.78976021 1568.17070198 427.1767025 C1564.40945309 433.2010029 1560.64421032 439.22280773 1556.87968636 445.24506187 C1553.71573849 450.30688293 1550.55281775 455.36934039 1547.39189339 460.43305016 C1541.21878466 470.32006169 1535.03110457 480.19711782 1528.79863167 490.04681969 C1522.88494674 499.39983616 1517.0303219 508.78976021 1511.17070198 518.1767025 C1507.40945309 524.2010029 1503.64421032 530.22280773 1499.87968636 536.24506187 C1496.71573849 541.30688293 1493.55281775 546.36934039 1490.39189339 551.43305016 C1484.21878466 561.32006169 1478.03110457 571.19711782 1471.79863167 581.04681969 C1465.23802089 591.4230067 1458.74756279 601.84318042 1452.24736214 612.25726891 C1444.79064371 624.20381173 1437.32873366 636.14636527 1429.79863167 648.04681969 C1423.88494674 657.39983616 1418.0303219 666.78976021 1412.17070198 676.1767025 C1408.40945309 682.2010029 1404.64421032 688.22280773 1400.87968636 694.24506187 C1397.71573849 699.30688293 1394.55281775 704.36934039 1391.39189339 709.43305016 C1385.21878466 719.32006169 1379.03110457 729.19711782 1372.79863167 739.04681969 C1366.88494674 748.39983616 1361.0303219 757.78976021 1355.17070198 767.1767025 C1351.40945309 773.2010029 1347.64421032 779.22280773 1343.87968636 785.24506187 C1340.71573849 790.30688293 1337.55281775 795.36934039 1334.39189339 800.43305016 C1328.21878466 810.32006169 1322.03110457 820.19711782 1315.79863167 830.04681969 C1309.23802089 840.4230067 1302.74756279 850.84318042 1296.24736214 861.25726891 C1288.79064371 873.20381173 1281.32873366 885.14636527 1273.79863167 897.04681969 C1267.88494674 906.39983616 1262.0303219 915.78976021 1256.17070198 925.1767025 C1252.40945309 931.2010029 1248.64421032 937.22280773 1244.87968636 943.24506187 C1241.71573849 948.30688293 1238.55281775 953.36934039 1235.39189339 958.43305016 C1229.21878466 968.32006169 1223.03110457 978.19711782 1216.79863167 988.04681969 C1210.88494674 997.39983616 1205.0303219 1006.78976021 1199.17070198 1016.1767025 C1195.40945309 1022.2010029 1191.64421032 1028.22280773 1187.87968636 1034.24506187 C1184.71573849 1039.30688293 1181.55281775 1044.36934039 1178.39189339 1049.43305016 C1172.21878466 1059.32006169 1166.03110457 1069.19711782 1159.79863167 1079.04681969 C1153.23802089 1089.4230067 1146.74756279 1099.84318042 1140.24736214 1110.25726891 C1132.79064371 1122.20381173 1125.32873366 1134.14636527 1117.79863167 1146.04681969 C1111.88494674 1155.39983616 1106.0303219 1164.78976021 1100.17070198 1174.1767025 C1096.40945309 1180.2010029 1092.64421032 1186.22280773 1088.87968636 1192.24506187 C1085.71573849 1197.30688293 1082.55281775 1202.36934039 1079.39189339 1207.43305016 C1073.6971415 1216.55391294 1067.99674643 1225.67072091 1062.24736214 1234.75726891 C1057.06429377 1242.95105145 1051.88595963 1251.14829112 1046.78300667 1259.39227867 C1043.84395263 1264.13906901 1040.87519291 1268.84580172 1037.74345589 1273.46820641 C1037.21373177 1274.27121178 1036.68400764 1275.07421715 1036.13823128 1275.90155602 C1035.16093377 1277.38001559 1034.16024313 1278.84340082 1033.13188362 1280.28680992 C1031.38612738 1282.97256351 1030.14509203 1284.99341437 1030.40898323 1288.25458336 C1031.15116121 1290.72213974 1032.13467095 1292.93142616 1033.24736214 1295.25726891 C1033.72963264 1296.30213463 1034.21190315 1297.34700035 1034.70878792 1298.42352867 C1036.15627714 1301.49159968 1037.63579522 1304.5390719 1039.1391468 1307.57987022 C1040.84441609 1311.03111127 1042.5296184 1314.49213672 1044.21611214 1317.95258141 C1044.73061424 1319.00698669 1044.73061424 1319.00698669 1045.25551033 1320.0826931 C1048.46074151 1326.66521294 1051.55665555 1333.29617253 1054.62236214 1339.94476891 C1059.5483242 1350.61628635 1064.5344863 1361.25728145 1069.55986214 1371.88226891 C1070.28553359 1373.41685354 1071.0112009 1374.95144013 1071.73686409 1376.48602867 C1072.82862779 1378.79476232 1073.92040552 1381.1034893 1075.01230049 1383.41216087 C1078.78819336 1391.39747486 1082.55022328 1399.3892922 1086.30986214 1407.38226891 C1086.63781776 1408.07943016 1086.96577339 1408.77659142 1087.30366707 1409.49487877 C1088.95708044 1413.00968332 1090.6103323 1416.5245638 1092.26347542 1420.03949547 C1095.25673838 1426.40356667 1098.25161554 1432.76687827 1101.24635506 1439.13025475 C1102.91342202 1442.6725624 1104.58038697 1446.21491805 1106.24736214 1449.75726891 C1106.91402831 1451.1739358 1107.58069498 1452.59060247 1108.24736214 1454.00726891 C1160.24736212 1564.50726888 1160.24736212 1564.50726888 1161.24731636 1566.63217735 C1161.91412974 1568.04915196 1162.58094899 1569.4661238 1163.24777412 1570.88309288 C1164.91224432 1574.42002539 1166.57661301 1577.95700559 1168.24077034 1581.49408531 C1171.26688012 1587.92566263 1174.29378769 1594.35685905 1177.3243885 1600.78632164 C1183.79316473 1614.51010873 1190.25130287 1628.23775435 1196.62236214 1642.00726891 C1202.4656055 1654.63131145 1208.41643993 1667.20304003 1214.37919807 1679.77094078 C1219.39422108 1690.34162461 1224.39364555 1700.9194353 1229.37236214 1711.50726891 C1229.6985453 1712.20088524 1230.02472847 1712.89450157 1230.36079597 1713.60913658 C1232.00068915 1717.09652615 1233.64022891 1720.5840817 1235.2795887 1724.07172203 C1238.26609669 1730.42487277 1241.25586989 1736.77648705 1244.24534798 1743.12824059 C1245.91281511 1746.67118928 1247.58007847 1750.21423387 1249.24736214 1753.75726891 C1249.91402782 1755.17393603 1250.58069449 1756.5906027 1251.24736214 1758.00726891 C1287.24736229 1834.50726923 1287.24736229 1834.50726923 1288.24733162 1836.63220787 C1288.91409609 1838.04907983 1289.58086448 1839.46594995 1290.2476368 1840.88281822 C1291.91283915 1844.42132877 1293.5779737 1847.9598712 1295.24296761 1851.49847984 C1298.2603734 1857.91119371 1301.27829358 1864.32366308 1304.29870796 1870.73496056 C1310.95134056 1884.85632611 1317.59351637 1898.98217905 1324.18486214 1913.13226891 C1330.36713303 1926.40365002 1336.61417428 1939.6439821 1342.87132454 1952.88019371 C1343.22873726 1953.63626915 1343.58614998 1954.39234459 1343.95439339 1955.17133141 C1344.31196724 1955.92772911 1344.66954109 1956.68412682 1345.03795052 1957.46344566 C1348.80417582 1965.43218959 1352.55817323 1973.4066731 1356.30986214 1981.38226891 C1356.80193153 1982.4282827 1356.80193153 1982.4282827 1357.30394173 1983.49542809 C1358.95726552 1987.0100486 1360.61041816 1990.52474958 1362.26347542 1994.03949547 C1365.25673838 2000.40356667 1368.25161554 2006.76687827 1371.24635506 2013.13025475 C1372.91342202 2016.6725624 1374.58038697 2020.21491805 1376.24736214 2023.75726891 C1376.91402831 2025.1739358 1377.58069498 2026.59060247 1378.24736214 2028.00726891 C1430.24736201 2138.50726863 1430.24736201 2138.50726863 1431.24731636 2140.63217735 C1431.91412974 2142.04915196 1432.58094899 2143.4661238 1433.24777412 2144.88309288 C1434.91224432 2148.42002539 1436.57661301 2151.95700559 1438.24077034 2155.49408531 C1441.26688012 2161.92566263 1444.29378769 2168.35685905 1447.3243885 2174.78632164 C1453.79316473 2188.51010873 1460.25130287 2202.23775435 1466.62236214 2216.00726891 C1472.4656055 2228.63131145 1478.41643993 2241.20304003 1484.37919807 2253.77094078 C1489.39422108 2264.34162461 1494.39364555 2274.9194353 1499.37236214 2285.50726891 C1499.6985453 2286.20088524 1500.02472847 2286.89450157 1500.36079597 2287.60913658 C1502.00068915 2291.09652615 1503.64022891 2294.5840817 1505.2795887 2298.07172203 C1508.26609669 2304.42487277 1511.25586989 2310.77648705 1514.24534798 2317.12824059 C1515.91281511 2320.67118928 1517.58007847 2324.21423387 1519.24736214 2327.75726891 C1519.91402782 2329.17393603 1520.58069449 2330.5906027 1521.24736214 2332.00726891 C1557.24736229 2408.50726923 1557.24736229 2408.50726923 1558.24733162 2410.63220787 C1558.91409609 2412.04907983 1559.58086448 2413.46594995 1560.2476368 2414.88281822 C1561.91283915 2418.42132877 1563.5779737 2421.9598712 1565.24296761 2425.49847984 C1568.2603734 2431.91119371 1571.27829358 2438.32366308 1574.29870796 2444.73496056 C1580.95134056 2458.85632611 1587.59351637 2472.98217905 1594.18486214 2487.13226891 C1600.36713303 2500.40365002 1606.61417428 2513.6439821 1612.87132454 2526.88019371 C1613.22873726 2527.63626915 1613.58614998 2528.39234459 1613.95439339 2529.17133141 C1614.31196724 2529.92772911 1614.66954109 2530.68412682 1615.03795052 2531.46344566 C1618.80417582 2539.43218959 1622.55817323 2547.4066731 1626.30986214 2555.38226891 C1626.6379084 2556.07961143 1626.96595467 2556.77695396 1627.30394173 2557.49542809 C1628.95726552 2561.0100486 1630.61041816 2564.52474958 1632.26347542 2568.03949547 C1635.25673838 2574.40356667 1638.25161554 2580.76687827 1641.24635506 2587.13025475 C1642.91342202 2590.6725624 1644.58038697 2594.21491805 1646.24736214 2597.75726891 C1646.91402831 2599.1739358 1647.58069498 2600.59060247 1648.24736214 2602.00726891 C1700.24736201 2712.50726863 1700.24736201 2712.50726863 1701.24731636 2714.63217735 C1701.91412974 2716.04915196 1702.58094899 2717.4661238 1703.24777412 2718.88309288 C1704.91224432 2722.42002539 1706.57661301 2725.95700559 1708.24077034 2729.49408531 C1711.26688012 2735.92566263 1714.29378769 2742.35685905 1717.3243885 2748.78632164 C1723.79316473 2762.51010873 1730.25130287 2776.23775435 1736.62236214 2790.00726891 C1742.4656055 2802.63131145 1748.41643993 2815.20304003 1754.37919807 2827.77094078 C1759.39422108 2838.34162461 1764.39364555 2848.9194353 1769.37236214 2859.50726891 C1769.6985453 2860.20088524 1770.02472847 2860.89450157 1770.36079597 2861.60913658 C1772.00068915 2865.09652615 1773.64022891 2868.5840817 1775.2795887 2872.07172203 C1778.26609669 2878.42487277 1781.25586989 2884.77648705 1784.24534798 2891.12824059 C1785.91281511 2894.67118928 1787.58007847 2898.21423387 1789.24736214 2901.75726891 C1789.91402782 2903.17393603 1790.58069449 2904.5906027 1791.24736214 2906.00726891 C1827.24736192 2982.50726845 1827.24736192 2982.50726845 1828.24733162 2984.63220787 C1828.91409609 2986.04907983 1829.58086448 2987.46594995 1830.2476368 2988.88281822 C1831.91283915 2992.42132877 1833.5779737 2995.9598712 1835.24296761 2999.49847984 C1838.2603734 3005.91119371 1841.27829358 3012.32366308 1844.29870796 3018.73496056 C1850.95134056 3032.85632611 1857.59351637 3046.98217905 1864.18486214 3061.13226891 C1870.36713303 3074.40365002 1876.61417428 3087.6439821 1882.87132454 3100.88019371 C1883.22873726 3101.63626915 1883.58614998 3102.39234459 1883.95439339 3103.17133141 C1884.31196724 3103.92772911 1884.66954109 3104.68412682 1885.03795052 3105.46344566 C1889.46021849 3114.8202733 1893.86713353 3124.18432794 1898.26909065 3133.55072594 C1901.36350364 3140.13410173 1904.4619553 3146.71546141 1907.57611275 3153.28952599 C1909.05087583 3156.40332612 1910.52332442 3159.51821822 1911.99562263 3162.63318443 C1912.69574633 3164.1127737 1913.39698918 3165.591834 1914.09944344 3167.07031822 C1923.2086621 3186.24486689 1923.2086621 3186.24486689 1923.30986214 3191.50726891 C1921.78870977 3195.44436915 1919.99981952 3196.38104021 1916.24736214 3198.25726891 C1909.90119932 3200.20304674 1903.72326186 3200.54458886 1897.12820053 3200.51453781 C1895.65121443 3200.51979692 1895.65121443 3200.51979692 1894.14439023 3200.52516228 C1890.84887434 3200.53445731 1887.55353591 3200.52955781 1884.25801277 3200.52469444 C1881.86982402 3200.52843164 1879.48163649 3200.53303343 1877.0934509 3200.53842509 C1871.90302157 3200.548107 1866.71262646 3200.55157126 1861.52219009 3200.54951286 C1853.80366425 3200.54645938 1846.08517958 3200.55479446 1838.36666174 3200.56526211 C1823.7788574 3200.58459333 1809.19106712 3200.59022998 1794.60325147 3200.59137623 C1783.33830146 3200.5922956 1772.07335696 3200.59641375 1760.80840874 3200.60277748 C1757.56489194 3200.60457258 1754.32137514 3200.60635221 1751.07785833 3200.60812724 C1750.27149776 3200.60856933 1749.46513719 3200.60901143 1748.63434145 3200.60946692 C1725.95670703 3200.62177324 1703.27907452 3200.62966825 1680.60143661 3200.62878036 C1679.3192298 3200.62873363 1679.3192298 3200.62873363 1678.01111982 3200.62868595 C1673.67868281 3200.62851974 1669.34624581 3200.62832165 1665.0138088 3200.62811653 C1664.15338096 3200.62807664 1663.29295313 3200.62803675 1662.40645172 3200.62799565 C1660.66645818 3200.62791478 1658.92646463 3200.62783118 1657.18647109 3200.62774487 C1630.11039247 3200.62651915 1603.03436393 3200.64153722 1575.95829964 3200.66889 C1545.53432216 3200.69961229 1515.11037758 3200.71682246 1484.68638361 3200.71496356 C1481.44223809 3200.71481429 1478.19809258 3200.71471688 1474.95394707 3200.71465492 C1474.1551631 3200.71463161 1473.35637912 3200.71460831 1472.53338958 3200.71458429 C1459.6810948 3200.71452275 1446.82884351 3200.72729217 1433.97656166 3200.74451945 C1421.06033802 3200.76147441 1408.14417801 3200.7634508 1395.2279494 3200.75030081 C1387.55609973 3200.74291115 1379.88444338 3200.74657005 1372.2126142 3200.76618549 C1366.48248573 3200.77959778 1360.75253648 3200.77207532 1355.02242069 3200.75643905 C1352.7055498 3200.75335983 1350.38865799 3200.75703602 1348.07181175 3200.7681592 C1322.5808617 3200.88243392 1322.5808617 3200.88243392 1315.11112082 3194.40473878 C1310.8128484 3190.01689558 1308.48771291 3185.04536186 1306.30986214 3179.38226891 C1302.39537696 3169.76302037 1298.07900571 3160.38290727 1293.62236214 3151.00726891 C1288.27804171 3139.73622313 1283.01258965 3128.43538499 1277.87236214 3117.06976891 C1272.4414763 3105.06803248 1266.96084078 3093.09054008 1261.43486214 3081.13226891 C1261.0591407 3080.31904167 1260.68341927 3079.50581444 1260.29631233 3078.66794395 C1257.99856785 3073.69504561 1255.69958155 3068.72272213 1253.4002552 3063.75055504 C1249.97226366 3056.33706282 1246.54657517 3048.92250707 1243.12236214 3041.50726891 C1242.74816139 3040.69699242 1242.37396065 3039.88671593 1241.98842049 3039.0518856 C1236.38510587 3026.91628459 1230.81546595 3014.76564651 1225.26530647 3002.60565758 C1219.99486212 2991.06025186 1214.69357677 2979.52936084 1209.37236214 2968.00726891 C1208.99823189 2967.19713341 1208.62410164 2966.38699791 1208.23863411 2965.55231285 C1205.57580013 2959.78687144 1202.91172182 2954.02200537 1200.24736214 2948.25726891 C1197.20484326 2941.67432906 1194.16287121 2935.09113732 1191.12236214 2928.50726891 C1190.74807076 2927.69681114 1190.37377937 2926.88635338 1189.98814583 2926.05133629 C1184.38492658 2913.91591677 1178.81538093 2901.76546023 1173.26530647 2889.60565758 C1167.99486212 2878.06025186 1162.69357677 2866.52936084 1157.37236214 2855.00726891 C1156.99823189 2854.19713341 1156.62410164 2853.38699791 1156.23863411 2852.55231285 C1153.57580013 2846.78687144 1150.91172182 2841.02200537 1148.24736214 2835.25726891 C1145.20484326 2828.67432906 1142.16287121 2822.09113732 1139.12236214 2815.50726891 C1138.74807076 2814.69681114 1138.37377937 2813.88635338 1137.98814583 2813.05133629 C1132.38492658 2800.91591677 1126.81538093 2788.76546023 1121.26530647 2776.60565758 C1115.99486212 2765.06025186 1110.69357677 2753.52936084 1105.37236214 2742.00726891 C1104.99823189 2741.19713341 1104.62410164 2740.38699791 1104.23863411 2739.55231285 C1101.57580013 2733.78687144 1098.91172182 2728.02200537 1096.24736214 2722.25726891 C1093.20484326 2715.67432906 1090.16287121 2709.09113732 1087.12236214 2702.50726891 C1086.74807076 2701.69681114 1086.37377937 2700.88635338 1085.98814583 2700.05133629 C1080.38492658 2687.91591677 1074.81538093 2675.76546023 1069.26530647 2663.60565758 C1063.99486212 2652.06025186 1058.69357677 2640.52936084 1053.37236214 2629.00726891 C1052.99823189 2628.19713341 1052.62410164 2627.38699791 1052.23863411 2626.55231285 C1049.57580013 2620.78687144 1046.91172182 2615.02200537 1044.24736214 2609.25726891 C1041.20484326 2602.67432906 1038.16287121 2596.09113732 1035.12236214 2589.50726891 C1034.74807076 2588.69681114 1034.37377937 2587.88635338 1033.98814583 2587.05133629 C1028.38492658 2574.91591677 1022.81538093 2562.76546023 1017.26530647 2550.60565758 C1011.99486212 2539.06025186 1006.69357677 2527.52936084 1001.37236214 2516.00726891 C1000.99823189 2515.19713341 1000.62410164 2514.38699791 1000.23863411 2513.55231285 C997.57580013 2507.78687144 994.91172182 2502.02200537 992.24736214 2496.25726891 C989.20484326 2489.67432906 986.16287121 2483.09113732 983.12236214 2476.50726891 C982.74807076 2475.69681114 982.37377937 2474.88635338 981.98814583 2474.05133629 C976.38492658 2461.91591677 970.81538093 2449.76546023 965.26530647 2437.60565758 C959.99486212 2426.06025186 954.69357677 2414.52936084 949.37236214 2403.00726891 C948.99823189 2402.19713341 948.62410164 2401.38699791 948.23863411 2400.55231285 C945.57580013 2394.78687144 942.91172182 2389.02200537 940.24736214 2383.25726891 C937.20484326 2376.67432906 934.16287121 2370.09113732 931.12236214 2363.50726891 C930.74807076 2362.69681114 930.37377937 2361.88635338 929.98814583 2361.05133629 C924.38492658 2348.91591677 918.81538093 2336.76546023 913.26530647 2324.60565758 C907.99486212 2313.06025186 902.69357677 2301.52936084 897.37236214 2290.00726891 C896.99823189 2289.19713341 896.62410164 2288.38699791 896.23863411 2287.55231285 C893.57580013 2281.78687144 890.91172182 2276.02200537 888.24736214 2270.25726891 C885.20484326 2263.67432906 882.16287121 2257.09113732 879.12236214 2250.50726891 C878.74807076 2249.69681114 878.37377937 2248.88635338 877.98814583 2248.05133629 C872.38492658 2235.91591677 866.81538093 2223.76546023 861.26530647 2211.60565758 C855.99486212 2200.06025186 850.69357677 2188.52936084 845.37236214 2177.00726891 C844.99823189 2176.19713341 844.62410164 2175.38699791 844.23863411 2174.55231285 C841.57580013 2168.78687144 838.91172182 2163.02200537 836.24736214 2157.25726891 C833.20484326 2150.67432906 830.16287121 2144.09113732 827.12236214 2137.50726891 C826.74807076 2136.69681114 826.37377937 2135.88635338 825.98814583 2135.05133629 C820.38492658 2122.91591677 814.81538093 2110.76546023 809.26530647 2098.60565758 C803.99486212 2087.06025186 798.69357677 2075.52936084 793.37236214 2064.00726891 C792.99823189 2063.19713341 792.62410164 2062.38699791 792.23863411 2061.55231285 C789.57580013 2055.78687144 786.91172182 2050.02200537 784.24736214 2044.25726891 C781.20484326 2037.67432906 778.16287121 2031.09113732 775.12236214 2024.50726891 C774.74807076 2023.69681114 774.37377937 2022.88635338 773.98814583 2022.05133629 C768.38492658 2009.91591677 762.81538093 1997.76546023 757.26530647 1985.60565758 C751.99486212 1974.06025186 746.69357677 1962.52936084 741.37236214 1951.00726891 C740.99823189 1950.19713341 740.62410164 1949.38699791 740.23863411 1948.55231285 C737.57580013 1942.78687144 734.91172182 1937.02200537 732.24736214 1931.25726891 C721.77525134 1908.59930746 711.33519426 1885.92752475 700.9705677 1863.22017479 C697.90289478 1856.50028543 694.82621521 1849.78454281 691.74736214 1843.06976891 C691.28402473 1842.05922447 690.82068733 1841.04868004 690.3433094 1840.00751305 C689.31147883 1837.75736196 688.27951627 1835.50727158 687.24736214 1833.25726891 C683.27707093 1837.91509834 680.12260712 1843.0267981 676.87236214 1848.19476891 C675.61724516 1850.17920169 674.36203417 1852.16357502 673.10673714 1854.14789391 C672.46671761 1855.16174156 671.82669807 1856.17558922 671.16728401 1857.22015953 C668.16484888 1861.96968815 665.14254964 1866.70651822 662.12236214 1871.44476891 C657.32647865 1878.97726771 652.54958259 1886.52148969 647.78593636 1894.07440758 C643.95505512 1900.14514412 640.10395954 1906.20284265 636.24736214 1912.25726891 C629.88836721 1922.24115191 623.56155336 1932.24500719 617.24736214 1942.25726891 C610.34260626 1953.20597485 603.41686828 1964.14083302 596.46318245 1975.05853844 C590.70040627 1984.1095617 584.97098664 1993.18145468 579.24736214 2002.25726891 C572.34260626 2013.20597485 565.41686828 2024.14083302 558.46318245 2035.05853844 C552.09649418 2044.96900185 552.09649418 2044.96900185 545.8950026 2054.98222235 C543.52741453 2058.85441348 541.19396951 2062.44386371 538.099989 2065.77417892 C524.64724579 2081.33697873 527.58523909 2102.76168148 527.7638327 2122.02131922 C527.80282768 2127.67276863 527.77161593 2133.3239178 527.74950129 2138.97539848 C527.72034023 2148.86900188 527.73544176 2158.76175916 527.77989578 2168.65529442 C527.82739779 2179.26288777 527.84909345 2189.87010178 527.83854866 2200.47777176 C527.83756945 2201.48531449 527.83756945 2201.48531449 527.83657046 2202.51321162 C527.83311738 2205.9386342 527.8292312 2209.36405615 527.82518711 2212.78947809 C527.7968054 2237.54191958 527.8258334 2262.29402204 527.88510132 2287.04639435 C527.94357824 2311.55600759 527.97577657 2336.06543713 527.97346878 2360.57512283 C527.97340715 2361.33721476 527.97334551 2362.0993067 527.97328201 2362.88449232 C527.97262817 2370.62248165 527.9714526 2378.36047083 527.9699382 2386.09846004 C527.96673588 2402.62447718 527.96750352 2419.15049364 527.97018719 2435.67651081 C527.97037355 2436.85828675 527.97037355 2436.85828675 527.97056369 2438.06393696 C527.97690542 2476.36482859 528.02597721 2514.66564753 528.07963753 2552.96649742 C528.09820863 2566.25244683 528.11667855 2579.53839636 528.13469124 2592.82434654 C528.13580994 2593.64831405 528.13692864 2594.47228156 528.13808123 2595.32121779 C528.18993666 2633.62541918 528.2188294 2671.92962602 528.24034801 2710.23385529 C528.24174654 2712.72072723 528.24315976 2715.20759917 528.24457553 2717.6944711 C528.26538044 2754.35701612 528.28119862 2791.01956214 528.2926502 2827.68211124 C528.29364719 2830.8609591 528.29466285 2834.03980696 528.29567964 2837.21865482 C528.29669235 2840.3852685 528.29769981 2843.55188218 528.29870654 2846.71849586 C528.29920851 2848.29691935 528.29971122 2849.87534283 528.3002147 2851.45376632 C528.30295921 2860.06918826 528.30559423 2868.6846102 528.30796392 2877.30003225 C528.31818914 2914.12905706 528.34376005 2950.95800585 528.39577419 2987.78699642 C528.40001093 2990.7941539 528.40423123 2993.80131141 528.40843475 2996.80846894 C528.40947109 2997.548987 528.41050743 2998.28950505 528.41157517 2999.05246305 C528.42679025 3010.00194109 528.43892062 3020.95141892 528.44818699 3031.90090358 C528.44878476 3032.60488678 528.44938252 3033.30886997 528.4499984 3034.03418598 C528.45587559 3041.02089409 528.46129933 3048.00760243 528.46611042 3054.99431135 C528.46847511 3058.4026662 528.47097498 3061.81102093 528.47356606 3065.21937561 C528.47407258 3065.88750346 528.47457911 3066.5556313 528.47510099 3067.24400545 C528.48394575 3078.47073644 528.50493176 3089.69742373 528.52923437 3100.92413095 C528.54958807 3110.68417441 528.55924199 3120.44418993 528.56014803 3130.20425449 C528.56101027 3135.7702584 528.56676266 3141.33614297 528.58582114 3146.90211684 C528.60308962 3151.96407791 528.60657942 3157.02585284 528.59902554 3162.08783601 C528.59874907 3163.90897921 528.60353861 3165.73013192 528.61398218 3167.55124519 C528.73265244 3189.36259539 528.73265244 3189.36259539 523.50264042 3195.20692614 C518.1974764 3200.08159216 513.6226664 3200.4034496 506.58653736 3200.38869667 C505.68665861 3200.3907493 504.78677985 3200.39280194 503.85963205 3200.39491677 C500.81647321 3200.40061262 497.77335926 3200.39912635 494.730196 3200.3977108 C492.53748866 3200.40029295 490.3447818 3200.40330569 488.15207559 3200.4067142 C482.1047977 3200.414805 476.05753167 3200.41657493 470.01024902 3200.41731167 C463.49683046 3200.4191586 456.98341811 3200.42670407 450.47000313 3200.43344688 C435.47469101 3200.44802389 420.47938016 3200.4535585 405.48406224 3200.45813883 C398.07672888 3200.46047358 390.66939631 3200.46407608 383.26206355 3200.46783421 C357.91447035 3200.48067017 332.56687758 3200.49138968 307.2192812 3200.49483681 C305.62771104 3200.49505844 304.03614089 3200.49528023 302.44457074 3200.49550216 C300.84912097 3200.4957228 299.2536712 3200.49594328 297.65822142 3200.49616361 C294.45738486 3200.49660616 291.2565483 3200.49705328 288.05571175 3200.49750328 C287.26208865 3200.49761267 286.46846555 3200.49772206 285.65079326 3200.49783477 C259.90980549 3200.50146648 234.16884587 3200.5173906 208.42786888 3200.54069364 C181.22371578 3200.56527634 154.01957878 3200.57900891 126.81541425 3200.58020473 C123.83048872 3200.58037618 120.84556319 3200.58059161 117.86063766 3200.58083916 C117.12564565 3200.58089493 116.39065363 3200.58095069 115.63338913 3200.58100815 C103.79330119 3200.58215992 91.95324208 3200.59319248 80.11316388 3200.60772621 C68.21793295 3200.62207545 56.32273908 3200.62533711 44.42750188 3200.61728624 C37.98027803 3200.61336826 31.53315141 3200.61436517 25.08593941 3200.62834358 C19.18839022 3200.64101372 13.29101201 3200.63994589 7.39346329 3200.62775287 C5.2555045 3200.62578388 3.11753388 3200.62892924 0.97959175 3200.63759723 C-1.9185787 3200.64860714 -4.81613687 3200.6412604 -7.71428967 3200.6292057 C-8.55118182 3200.6368009 -9.38807397 3200.64439609 -10.25032648 3200.65222144 C-16.69975444 3200.59400632 -20.82348201 3199.18642476 -25.50263786 3194.50726891 C-30.0545924 3187.93222347 -30.03953835 3181.57316012 -29.99109071 3173.82998306 C-29.9925178 3172.77701359 -29.99394488 3171.72404412 -29.9954152 3170.63916649 C-29.99767023 3167.05779946 -29.98536125 3163.47662702 -29.97321033 3159.89528179 C-29.97156968 3157.25844165 -29.97070983 3154.62161092 -29.97072492 3151.98477124 C-29.96880634 3145.33797287 -29.95551548 3138.69123757 -29.93899119 3132.04446132 C-29.92515553 3126.34948733 -29.91610304 3120.65452109 -29.9099127 3114.95953385 C-29.90899946 3114.12340328 -29.90808621 3113.28727272 -29.9071453 3112.42580486 C-29.90528085 3110.70838676 -29.90342078 3108.99096866 -29.90156495 3107.27355056 C-29.87726742 3085.61808612 -29.8281453 3063.96268905 -29.77641829 3042.30727571 C-29.75740198 3034.33361438 -29.73923228 3026.35995144 -29.72148886 3018.38628718 C-29.55328128 2942.91128795 -29.34420574 2867.43642163 -29.12614483 2791.96155311 C-29.05633875 2767.79810389 -28.9876467 2743.6346517 -28.9197197 2719.47119713 C-28.91733225 2718.62207564 -28.91494481 2717.77295414 -28.91248502 2716.8981017 C-28.89059415 2709.11231799 -28.86871286 2701.32653425 -28.84684304 2693.54075048 C-28.79207466 2674.04328454 -28.73715779 2654.54581903 -28.68213928 2635.04835379 C-28.67962215 2634.1563123 -28.67710503 2633.2642708 -28.67451163 2632.34519775 C-28.55136522 2588.70843438 -28.42658814 2545.07167568 -28.30163574 2501.43491745 C-28.29618322 2499.530727 -28.29073071 2497.62653656 -28.28527819 2495.72234611 C-28.28257574 2494.77856457 -28.27987329 2493.83478302 -28.27708894 2492.86240203 C-28.24143128 2480.40958848 -28.20577813 2467.95677492 -28.17013669 2455.50396132 C-28.16741059 2454.55150798 -28.16468448 2453.59905463 -28.16187577 2452.61773906 C-28.0346616 2408.16921565 -27.90842746 2363.72068947 -27.78239899 2319.27216268 C-27.76858438 2314.4000559 -27.75476793 2309.52794911 -27.7409517 2304.65584233 C-27.6992911 2289.96460094 -27.65763333 2275.27335954 -27.61598129 2260.58211813 C-27.48900602 2215.79635109 -27.3618827 2171.01058448 -27.23463154 2126.22481823 C-27.23179979 2125.22817543 -27.22896805 2124.23153263 -27.2260505 2123.20468853 C-27.04304802 2058.79719116 -26.85938502 1994.38969569 -26.67523861 1929.98220158 C-26.67083887 1928.44330938 -26.67083887 1928.44330938 -26.66635025 1926.87332845 C-26.56815221 1892.52669448 -26.46991892 1858.1800606 -26.37168216 1823.83342674 C-26.07499666 1720.10252968 -25.77904193 1616.37163061 -25.25488946 1431.19148425 C-25.15793425 1396.91547535 -25.06097277 1362.63946647 -24.96398067 1328.36345768 C-24.96108347 1327.33959438 -24.95818626 1326.31573108 -24.95520126 1325.26084163 C-24.77316278 1260.9292827 -24.59060041 1196.59772528 -24.40743732 1132.26616955 C-24.4045998 1131.26954296 -24.40176228 1130.27291638 -24.39883877 1129.24608898 C-24.27130238 1084.45183185 -24.14362519 1039.65757512 -24.01581869 994.86331875 C-23.97387911 980.16407821 -23.93194579 965.46483766 -23.89001451 950.7655971 C-23.87611012 945.89135123 -23.86220515 941.01710537 -23.84829883 936.14285952 C-23.72154823 891.71563341 -23.5950605 847.28840659 -23.46946454 802.86117721 C-23.46543665 801.4364235 -23.46543665 801.4364235 -23.46132739 799.98288689 C-23.42622301 787.56541038 -23.3911317 775.14793384 -23.35604196 762.73045729 C-23.35338316 761.78957192 -23.35072437 760.84868656 -23.34798501 759.87928952 C-23.34262122 757.98116783 -23.33725747 756.08304615 -23.33189374 754.18492446 C-23.20876621 710.61316908 -23.08536439 667.04141454 -22.96045959 623.46966422 C-22.95789916 622.57646166 -22.95533872 621.6832591 -22.9527007 620.76298979 C-22.89669506 601.22722985 -22.84056744 581.69147027 -22.78432163 562.15571102 C-22.76185561 554.35207233 -22.73940422 546.54843359 -22.71695709 538.74479485 C-22.71450885 537.89382387 -22.71206061 537.04285289 -22.70953818 536.16609491 C-22.64021344 512.06777325 -22.57179528 487.96944922 -22.50430414 463.87112236 C-22.31993282 398.04596543 -22.1286127 332.22084839 -21.90703762 266.39580479 C-21.88929308 261.11242071 -21.87159175 255.82903649 -21.85392499 250.54565215 C-21.84958285 249.24855772 -21.84524071 247.95146329 -21.84076698 246.61506297 C-21.7710922 225.7190134 -21.71195907 204.82294675 -21.65680909 183.92685434 C-21.60147386 163.04025141 -21.5355411 142.1537044 -21.45826852 121.26717086 C-21.41320143 109.00124215 -21.37623465 96.73535341 -21.35117004 84.46936715 C-21.33378758 76.35881807 -21.30572899 68.2483525 -21.26877148 60.13786907 C-21.24808727 55.5322484 -21.23211672 50.92674375 -21.2292241 46.3210746 C-21.22651119 42.14153488 -21.21016763 37.96228027 -21.18287807 33.78283078 C-21.17547387 32.28251424 -21.17304575 30.78216277 -21.17621117 29.2818313 C-21.20754854 11.42087921 -21.20754854 11.42087921 -15.31513786 4.31976891 C-10.27079106 0.2596849 -6.39612691 -0.0313719 0 0 Z " fill="#000000" transform="translate(46.75263786315918,30.74273109436035)"/>
</svg>
